<svg width="24" height="24" viewBox="0 0 24 24" fill="none" xmlns="http://www.w3.org/2000/svg">
<path d="M11.4694 10.2806C11.539 10.3503 11.6217 10.4057 11.7128 10.4434C11.8038 10.4811 11.9014 10.5006 12 10.5006C12.0985 10.5006 12.1961 10.4811 12.2872 10.4434C12.3782 10.4057 12.461 10.3503 12.5306 10.2806L16.2806 6.53061C16.3503 6.46095 16.4057 6.37823 16.4434 6.28719C16.4811 6.19614 16.5006 6.09854 16.5006 5.99998C16.5006 5.90142 16.4811 5.80382 16.4434 5.71277C16.4057 5.62173 16.3503 5.53901 16.2806 5.46936L12.5306 1.71935C12.461 1.64962 12.3782 1.5943 12.2872 1.55656C12.1961 1.51882 12.0985 1.49939 12 1.49939C11.9014 1.49939 11.8038 1.51882 11.7128 1.55656C11.6217 1.5943 11.539 1.64962 11.4694 1.71935L7.71935 5.46936C7.64962 5.53901 7.5943 5.62173 7.55656 5.71277C7.51882 5.80382 7.49939 5.90142 7.49939 5.99998C7.49939 6.09854 7.51882 6.19614 7.55656 6.28719C7.5943 6.37823 7.64962 6.46095 7.71935 6.53061L11.4694 10.2806ZM12 3.31029L14.6897 5.99998L12 8.68967L9.31029 5.99998L12 3.31029ZM12.5306 13.7165C12.461 13.6468 12.3782 13.5915 12.2872 13.5537C12.1961 13.516 12.0985 13.4966 12 13.4966C11.9014 13.4966 11.8038 13.516 11.7128 13.5537C11.6217 13.5915 11.539 13.6468 11.4694 13.7165L7.71935 17.4665C7.64962 17.5362 7.5943 17.6189 7.55656 17.71C7.51882 17.801 7.49939 17.8986 7.49939 17.9972C7.49939 18.0957 7.51882 18.1933 7.55656 18.2844C7.5943 18.3754 7.64962 18.4581 7.71935 18.5278L11.4694 22.2778C11.539 22.3475 11.6217 22.4028 11.7128 22.4406C11.8038 22.4783 11.9014 22.4978 12 22.4978C12.0985 22.4978 12.1961 22.4783 12.2872 22.4406C12.3782 22.4028 12.461 22.3475 12.5306 22.2778L16.2806 18.5278C16.3503 18.4581 16.4057 18.3754 16.4434 18.2844C16.4811 18.1933 16.5006 18.0957 16.5006 17.9972C16.5006 17.8986 16.4811 17.801 16.4434 17.71C16.4057 17.6189 16.3503 17.5362 16.2806 17.4665L12.5306 13.7165ZM12 20.6897L9.31029 18L12 15.3103L14.6897 18L12 20.6897ZM22.2806 11.4694L18.5306 7.71935C18.4609 7.64962 18.3782 7.5943 18.2872 7.55656C18.1961 7.51882 18.0985 7.49939 18 7.49939C17.9014 7.49939 17.8038 7.51882 17.7128 7.55656C17.6217 7.5943 17.539 7.64962 17.4694 7.71935L13.7194 11.4694C13.6496 11.539 13.5943 11.6217 13.5566 11.7128C13.5188 11.8038 13.4994 11.9014 13.4994 12C13.4994 12.0985 13.5188 12.1961 13.5566 12.2872C13.5943 12.3782 13.6496 12.461 13.7194 12.5306L17.4694 16.2806C17.539 16.3503 17.6217 16.4057 17.7128 16.4434C17.8038 16.4811 17.9014 16.5006 18 16.5006C18.0985 16.5006 18.1961 16.4811 18.2872 16.4434C18.3782 16.4057 18.4609 16.3503 18.5306 16.2806L22.2806 12.5306C22.3503 12.461 22.4057 12.3782 22.4434 12.2872C22.4811 12.1961 22.5006 12.0985 22.5006 12C22.5006 11.9014 22.4811 11.8038 22.4434 11.7128C22.4057 11.6217 22.3503 11.539 22.2806 11.4694ZM18 14.6897L15.3103 12L18 9.31029L20.6897 12L18 14.6897ZM10.2806 11.4694L6.53061 7.71935C6.46095 7.64962 6.37823 7.5943 6.28718 7.55656C6.19614 7.51882 6.09854 7.49939 5.99998 7.49939C5.90142 7.49939 5.80382 7.51882 5.71277 7.55656C5.62173 7.5943 5.53901 7.64962 5.46935 7.71935L1.71935 11.4694C1.64962 11.539 1.5943 11.6217 1.55656 11.7128C1.51882 11.8038 1.49939 11.9014 1.49939 12C1.49939 12.0985 1.51882 12.1961 1.55656 12.2872C1.5943 12.3782 1.64962 12.461 1.71935 12.5306L5.46935 16.2806C5.53901 16.3503 5.62173 16.4057 5.71277 16.4434C5.80382 16.4811 5.90142 16.5006 5.99998 16.5006C6.09854 16.5006 6.19614 16.4811 6.28718 16.4434C6.37823 16.4057 6.46095 16.3503 6.53061 16.2806L10.2806 12.5306C10.3503 12.461 10.4057 12.3782 10.4434 12.2872C10.4811 12.1961 10.5006 12.0985 10.5006 12C10.5006 11.9014 10.4811 11.8038 10.4434 11.7128C10.4057 11.6217 10.3503 11.539 10.2806 11.4694ZM5.99998 14.6897L3.31029 12L5.99998 9.31029L8.68967 12L5.99998 14.6897Z" fill="white" fill-opacity="0.7"/>
</svg>
