<svg width="24" height="24" viewBox="0 0 24 24" fill="none" xmlns="http://www.w3.org/2000/svg">
<path d="M10.5 14.25C10.3011 14.25 10.1103 14.329 9.96967 14.4696C9.82902 14.6103 9.75 14.801 9.75 15V17.6896L6.21937 14.1562C6.07945 14.0161 6.00059 13.8264 6 13.6284V8.9062C6.70699 8.72366 7.32314 8.28953 7.73295 7.6852C8.14276 7.08086 8.31809 6.34781 8.22609 5.62345C8.13408 4.89909 7.78105 4.23315 7.23317 3.75046C6.68529 3.26777 5.98018 3.00146 5.25 3.00146C4.51982 3.00146 3.8147 3.26777 3.26683 3.75046C2.71895 4.23315 2.36592 4.89909 2.27391 5.62345C2.1819 6.34781 2.35724 7.08086 2.76705 7.6852C3.17686 8.28953 3.79301 8.72366 4.5 8.9062V13.6293C4.4985 13.9252 4.55574 14.2184 4.66839 14.492C4.78104 14.7656 4.94686 15.0141 5.15625 15.2231L8.68969 18.75H6C5.80109 18.75 5.61032 18.829 5.46967 18.9696C5.32902 19.1103 5.25 19.301 5.25 19.5C5.25 19.6989 5.32902 19.8896 5.46967 20.0303C5.61032 20.1709 5.80109 20.25 6 20.25H10.5C10.6989 20.25 10.8897 20.1709 11.0303 20.0303C11.171 19.8896 11.25 19.6989 11.25 19.5V15C11.25 14.801 11.171 14.6103 11.0303 14.4696C10.8897 14.329 10.6989 14.25 10.5 14.25ZM3.75 5.99995C3.75 5.70328 3.83797 5.41327 4.0028 5.1666C4.16762 4.91992 4.40189 4.72766 4.67597 4.61413C4.95006 4.5006 5.25166 4.4709 5.54264 4.52877C5.83361 4.58665 6.10088 4.72951 6.31066 4.93929C6.52044 5.14907 6.6633 5.41635 6.72118 5.70732C6.77906 5.99829 6.74935 6.29989 6.63582 6.57398C6.52229 6.84807 6.33003 7.08233 6.08336 7.24716C5.83668 7.41198 5.54667 7.49995 5.25 7.49995C4.85217 7.49995 4.47064 7.34192 4.18934 7.06061C3.90803 6.77931 3.75 6.39778 3.75 5.99995ZM19.5 15.0937V10.3715C19.5015 10.0757 19.4443 9.78244 19.3316 9.50887C19.219 9.23529 19.0531 8.98679 18.8438 8.77776L15.3103 5.24995H18C18.1989 5.24995 18.3897 5.17093 18.5303 5.03028C18.671 4.88963 18.75 4.69886 18.75 4.49995C18.75 4.30104 18.671 4.11027 18.5303 3.96962C18.3897 3.82897 18.1989 3.74995 18 3.74995H13.5C13.3011 3.74995 13.1103 3.82897 12.9697 3.96962C12.829 4.11027 12.75 4.30104 12.75 4.49995V8.99995C12.75 9.19886 12.829 9.38963 12.9697 9.53028C13.1103 9.67093 13.3011 9.74995 13.5 9.74995C13.6989 9.74995 13.8897 9.67093 14.0303 9.53028C14.171 9.38963 14.25 9.19886 14.25 8.99995V6.31026L17.7806 9.8437C17.8503 9.91341 17.9055 9.99614 17.9431 10.0872C17.9807 10.1782 18.0001 10.2758 18 10.3743V15.0937C17.293 15.2762 16.6769 15.7104 16.267 16.3147C15.8572 16.919 15.6819 17.6521 15.7739 18.3765C15.8659 19.1008 16.2189 19.7668 16.7668 20.2494C17.3147 20.7321 18.0198 20.9984 18.75 20.9984C19.4802 20.9984 20.1853 20.7321 20.7332 20.2494C21.2811 19.7668 21.6341 19.1008 21.7261 18.3765C21.8181 17.6521 21.6428 16.919 21.233 16.3147C20.8231 15.7104 20.207 15.2762 19.5 15.0937ZM18.75 19.5C18.4533 19.5 18.1633 19.412 17.9166 19.2472C17.67 19.0823 17.4777 18.8481 17.3642 18.574C17.2506 18.2999 17.2209 17.9983 17.2788 17.7073C17.3367 17.4163 17.4796 17.1491 17.6893 16.9393C17.8991 16.7295 18.1664 16.5867 18.4574 16.5288C18.7483 16.4709 19.0499 16.5006 19.324 16.6141C19.5981 16.7277 19.8324 16.9199 19.9972 17.1666C20.162 17.4133 20.25 17.7033 20.25 18C20.25 18.3978 20.092 18.7793 19.8107 19.0606C19.5294 19.3419 19.1478 19.5 18.75 19.5Z" fill="url(#paint0_linear_125_3486)"/>
<defs>
<linearGradient id="paint0_linear_125_3486" x1="2.24999" y1="3.00146" x2="20.1892" y2="22.4389" gradientUnits="userSpaceOnUse">
<stop stop-color="#68F7BB"/>
<stop offset="1" stop-color="#00A360"/>
</linearGradient>
</defs>
</svg>
