<svg width="24" height="24" viewBox="0 0 24 24" fill="none" xmlns="http://www.w3.org/2000/svg">
<path d="M18.75 14.25C18.0871 14.2496 17.4429 14.47 16.9191 14.8762L14.7525 13.1887C14.9161 12.8138 15.0003 12.4091 15 12C15 11.9306 15 11.8612 14.9925 11.7928L16.2328 11.3794C16.6252 11.9846 17.2225 12.4281 17.9153 12.6288C18.6081 12.8295 19.35 12.7738 20.0051 12.4721C20.6602 12.1703 21.1847 11.6426 21.4825 10.9857C21.7802 10.3287 21.8313 9.58649 21.6264 8.89494C21.4215 8.20338 20.9742 7.60881 20.3667 7.22012C19.7591 6.83144 19.0318 6.67466 18.318 6.77852C17.6043 6.88238 16.9518 7.23991 16.4802 7.78563C16.0086 8.33135 15.7493 9.02871 15.75 9.74999C15.75 9.81936 15.75 9.88874 15.7575 9.95718L14.5172 10.3706C14.2453 9.95027 13.8725 9.60465 13.4329 9.36525C12.9932 9.12585 12.5006 9.00028 12 8.99999C11.8345 9.00033 11.6692 9.01413 11.5059 9.04124L10.8647 7.59374C11.4184 7.15133 11.7976 6.52716 11.935 5.83188C12.0725 5.13659 11.9594 4.41509 11.6157 3.79525C11.272 3.17541 10.72 2.69727 10.0574 2.44556C9.3949 2.19386 8.66464 2.18485 7.99609 2.42014C7.32754 2.65542 6.76388 3.11981 6.40501 3.73098C6.04615 4.34216 5.91525 5.06065 6.03553 5.75911C6.15581 6.45758 6.51949 7.0909 7.06211 7.54684C7.60473 8.00277 8.29125 8.25187 9 8.24999C9.16553 8.24965 9.33076 8.23585 9.49406 8.20874L10.1353 9.65249C9.59152 10.0829 9.2141 10.6888 9.06755 11.3666C8.921 12.0445 9.01443 12.7522 9.33187 13.3687L6.92156 15.51C6.31498 15.1011 5.58009 14.9274 4.85462 15.0216C4.12916 15.1157 3.46294 15.4712 2.98084 16.0214C2.49874 16.5716 2.23385 17.2788 2.23584 18.0103C2.23782 18.7419 2.50653 19.4476 2.99161 19.9952C3.47668 20.5428 4.14482 20.8946 4.87078 20.9849C5.59674 21.0751 6.33068 20.8974 6.93504 20.4852C7.53939 20.073 7.97267 19.4546 8.15364 18.7458C8.33462 18.0369 8.25088 17.2865 7.91812 16.635L10.3284 14.4937C10.8503 14.8451 11.4697 15.023 12.0985 15.0022C12.7273 14.9813 13.3335 14.7627 13.8309 14.3775L15.9975 16.065C15.8344 16.4388 15.7502 16.8422 15.75 17.25C15.75 17.8433 15.9259 18.4234 16.2556 18.9167C16.5852 19.41 17.0538 19.7946 17.6019 20.0216C18.1501 20.2487 18.7533 20.3081 19.3353 20.1923C19.9172 20.0766 20.4518 19.7909 20.8713 19.3713C21.2909 18.9518 21.5766 18.4172 21.6924 17.8353C21.8081 17.2533 21.7487 16.6501 21.5216 16.1019C21.2946 15.5538 20.9101 15.0852 20.4167 14.7556C19.9234 14.4259 19.3433 14.25 18.75 14.25ZM18.75 8.24999C19.0467 8.24999 19.3367 8.33796 19.5834 8.50278C19.83 8.66761 20.0223 8.90187 20.1358 9.17596C20.2493 9.45005 20.2791 9.75165 20.2212 10.0426C20.1633 10.3336 20.0204 10.6009 19.8107 10.8106C19.6009 11.0204 19.3336 11.1633 19.0426 11.2212C18.7517 11.279 18.4501 11.2493 18.176 11.1358C17.9019 11.0223 17.6676 10.83 17.5028 10.5833C17.338 10.3367 17.25 10.0467 17.25 9.74999C17.25 9.35216 17.408 8.97063 17.6893 8.68933C17.9706 8.40802 18.3522 8.24999 18.75 8.24999ZM7.5 5.24999C7.5 4.95332 7.58797 4.66331 7.75279 4.41663C7.91761 4.16996 8.15188 3.9777 8.42597 3.86417C8.70006 3.75064 9.00166 3.72093 9.29263 3.77881C9.5836 3.83669 9.85088 3.97955 10.0607 4.18933C10.2704 4.39911 10.4133 4.66638 10.4712 4.95735C10.5291 5.24833 10.4993 5.54993 10.3858 5.82401C10.2723 6.0981 10.08 6.33237 9.83335 6.49719C9.58668 6.66202 9.29667 6.74999 9 6.74999C8.60217 6.74999 8.22064 6.59195 7.93934 6.31065C7.65803 6.02934 7.5 5.64781 7.5 5.24999ZM5.25 19.5C4.95332 19.5 4.66331 19.412 4.41664 19.2472C4.16997 19.0824 3.97771 18.8481 3.86418 18.574C3.75065 18.2999 3.72094 17.9983 3.77882 17.7074C3.8367 17.4164 3.97956 17.1491 4.18934 16.9393C4.39911 16.7296 4.66639 16.5867 4.95736 16.5288C5.24833 16.4709 5.54993 16.5006 5.82402 16.6142C6.09811 16.7277 6.33238 16.92 6.4972 17.1666C6.66202 17.4133 6.75 17.7033 6.75 18C6.75 18.3978 6.59196 18.7793 6.31066 19.0606C6.02935 19.342 5.64782 19.5 5.25 19.5ZM10.5 12C10.5 11.7033 10.588 11.4133 10.7528 11.1666C10.9176 10.92 11.1519 10.7277 11.426 10.6142C11.7001 10.5006 12.0017 10.4709 12.2926 10.5288C12.5836 10.5867 12.8509 10.7295 13.0607 10.9393C13.2704 11.1491 13.4133 11.4164 13.4712 11.7074C13.5291 11.9983 13.4993 12.2999 13.3858 12.574C13.2723 12.8481 13.08 13.0824 12.8334 13.2472C12.5867 13.412 12.2967 13.5 12 13.5C11.6022 13.5 11.2206 13.342 10.9393 13.0606C10.658 12.7793 10.5 12.3978 10.5 12ZM18.75 18.75C18.4533 18.75 18.1633 18.662 17.9166 18.4972C17.67 18.3324 17.4777 18.0981 17.3642 17.824C17.2506 17.5499 17.2209 17.2483 17.2788 16.9574C17.3367 16.6664 17.4796 16.3991 17.6893 16.1893C17.8991 15.9796 18.1664 15.8367 18.4574 15.7788C18.7483 15.7209 19.0499 15.7506 19.324 15.8642C19.5981 15.9777 19.8324 16.17 19.9972 16.4166C20.162 16.6633 20.25 16.9533 20.25 17.25C20.25 17.6478 20.092 18.0293 19.8107 18.3106C19.5294 18.592 19.1478 18.75 18.75 18.75Z" fill="url(#paint0_linear_125_3488)"/>
<defs>
<linearGradient id="paint0_linear_125_3488" x1="2.23582" y1="2.25" x2="20.979" y2="21.7489" gradientUnits="userSpaceOnUse">
<stop stop-color="#68F7BB"/>
<stop offset="1" stop-color="#00A360"/>
</linearGradient>
</defs>
</svg>
