<svg width="24" height="24" viewBox="0 0 24 24" fill="none" xmlns="http://www.w3.org/2000/svg">
<path d="M20.8003 7.79626C21.8411 9.97295 22.0386 12.458 21.3549 14.7718C20.6712 17.0856 19.1546 19.0641 17.0979 20.3255C15.0412 21.5868 12.5901 22.0417 10.2178 21.6022C7.84546 21.1627 5.72002 19.86 4.25167 17.9455C2.78333 16.0311 2.07619 13.6406 2.26671 11.2354C2.45723 8.83024 3.53193 6.5809 5.28337 4.92151C7.03481 3.26211 9.33884 2.3103 11.7508 2.24978C14.1627 2.18925 16.5116 3.0243 18.3441 4.59376L20.4694 2.46751C20.6101 2.32678 20.801 2.24771 21 2.24771C21.199 2.24771 21.3899 2.32678 21.5306 2.46751C21.6714 2.60824 21.7504 2.79911 21.7504 2.99813C21.7504 3.19715 21.6714 3.38803 21.5306 3.52876L12.5306 12.5288C12.3899 12.6695 12.199 12.7485 12 12.7485C11.801 12.7485 11.6101 12.6695 11.4694 12.5288C11.3286 12.388 11.2496 12.1972 11.2496 11.9981C11.2496 11.7991 11.3286 11.6082 11.4694 11.4675L14.0681 8.86876C13.3638 8.40296 12.5229 8.1885 11.6816 8.26008C10.8402 8.33166 10.0477 8.6851 9.4322 9.26318C8.81672 9.84126 8.41435 10.6101 8.29023 11.4454C8.16611 12.2806 8.32751 13.1332 8.74829 13.8653C9.16908 14.5974 9.82462 15.166 10.6088 15.4792C11.393 15.7923 12.2599 15.8316 13.0692 15.5908C13.8785 15.3499 14.5828 14.843 15.0682 14.152C15.5535 13.461 15.7914 12.6265 15.7434 11.7834C15.7379 11.685 15.7518 11.5863 15.7844 11.4932C15.817 11.4001 15.8675 11.3143 15.9333 11.2408C15.999 11.1672 16.0786 11.1073 16.1674 11.0645C16.2563 11.0217 16.3528 10.9968 16.4512 10.9913C16.6502 10.9801 16.8454 11.0484 16.9939 11.1811C17.0675 11.2468 17.1274 11.3264 17.1702 11.4153C17.213 11.5041 17.2379 11.6006 17.2434 11.6991C17.3118 12.8923 16.971 14.0731 16.2773 15.0464C15.5837 16.0197 14.5787 16.7272 13.4284 17.0519C12.2782 17.3767 11.0516 17.2992 9.95136 16.8324C8.85112 16.3655 7.94311 15.5372 7.37739 14.4844C6.81167 13.4316 6.62212 12.2172 6.84006 11.0421C7.05799 9.86694 7.67038 8.80133 8.576 8.02138C9.48162 7.24142 10.6263 6.79382 11.8207 6.75255C13.0152 6.71127 14.188 7.0788 15.1453 7.79438L17.2781 5.66157C15.7151 4.36388 13.7278 3.68941 11.6978 3.7677C9.66781 3.846 7.73833 4.67153 6.27992 6.08576C4.82152 7.49998 3.93704 9.40317 3.79635 11.4298C3.65567 13.4564 4.2687 15.4635 5.51771 17.0657C6.76672 18.6679 8.56363 19.7521 10.5633 20.1101C12.563 20.4682 14.6245 20.0747 16.3518 19.0055C18.0791 17.9362 19.3505 16.2664 19.9217 14.3169C20.4929 12.3674 20.3237 10.2755 19.4466 8.44313C19.3608 8.26361 19.3498 8.05737 19.4161 7.86978C19.4824 7.68218 19.6205 7.5286 19.8 7.44282C19.9795 7.35704 20.1858 7.34608 20.3734 7.41237C20.5609 7.47865 20.7145 7.61674 20.8003 7.79626Z" fill="url(#paint0_linear_125_3489)"/>
<defs>
<linearGradient id="paint0_linear_125_3489" x1="2.23622" y1="2.2467" x2="21.755" y2="21.7655" gradientUnits="userSpaceOnUse">
<stop stop-color="#68F7BB"/>
<stop offset="1" stop-color="#00A360"/>
</linearGradient>
</defs>
</svg>
